<?xml version="1.0" encoding="UTF-8" standalone="no"?>
<!-- Created with Inkscape (http://www.inkscape.org/) -->

<svg
   xmlns:dc="http://purl.org/dc/elements/1.1/"
   xmlns:cc="http://creativecommons.org/ns#"
   xmlns:rdf="http://www.w3.org/1999/02/22-rdf-syntax-ns#"
   xmlns:svg="http://www.w3.org/2000/svg"
   xmlns="http://www.w3.org/2000/svg"
   xmlns:sodipodi="http://sodipodi.sourceforge.net/DTD/sodipodi-0.dtd"
   xmlns:inkscape="http://www.inkscape.org/namespaces/inkscape"
   version="1.1"
   id="svg34121"
   xml:space="preserve"
   width="800"
   height="800"
   viewBox="0 0 800 800"
   sodipodi:docname="Guitarist-Silhouette-Color-publicdomainvectors.org.svg"
   inkscape:version="0.92.4 (5da689c313, 2019-01-14)"><metadata
     id="metadata34127"><rdf:RDF><cc:Work
         rdf:about=""><dc:format>image/svg+xml</dc:format><dc:type
           rdf:resource="http://purl.org/dc/dcmitype/StillImage" /><dc:title></dc:title></cc:Work></rdf:RDF></metadata><defs
     id="defs34125"><clipPath
       clipPathUnits="userSpaceOnUse"
       id="clipPath34137"><path
         d="M 0,600 H 600 V 0 H 0 Z"
         id="path34135"
         inkscape:connector-curvature="0" /></clipPath></defs><sodipodi:namedview
     pagecolor="#ffffff"
     bordercolor="#666666"
     borderopacity="1"
     objecttolerance="10"
     gridtolerance="10"
     guidetolerance="10"
     inkscape:pageopacity="0"
     inkscape:pageshadow="2"
     inkscape:window-width="797"
     inkscape:window-height="480"
     id="namedview34123"
     showgrid="false"
     inkscape:zoom="0.295"
     inkscape:cx="400"
     inkscape:cy="400"
     inkscape:window-x="0"
     inkscape:window-y="0"
     inkscape:window-maximized="0"
     inkscape:current-layer="g34129" /><g
     id="g34129"
     inkscape:groupmode="layer"
     inkscape:label="Guitarist-Silhouette-Color-publicdomainvectors.org"
     transform="matrix(1.3333333,0,0,-1.3333333,0,800)"><g
       id="g34131"><g
         id="g34133"
         clip-path="url(#clipPath34137)"><path
           d="m 70.958,206.311 c -3.032,-4.047 -1.013,-6.577 0,-10.122 0.928,-3.242 3.126,-3.939 5.816,-6.742 l -2.5,21.438 c -1.393,-1.936 -2.568,-3.578 -3.316,-4.574"
           style="fill:#ee2d21;fill-opacity:1;fill-rule:nonzero;stroke:none"
           id="path34139"
           inkscape:connector-curvature="0" /><path
           d="m 532.558,328.24 1.29,-6.332 2.922,0.729 -0.01,0.343 c -0.58,0.743 -2.226,2.842 -4.202,5.26"
           style="fill:#1e3e49;fill-opacity:1;fill-rule:nonzero;stroke:none"
           id="path34141"
           inkscape:connector-curvature="0" /><path
           d="m 365.945,540.268 -5.06,7.59 -12.138,13.659 c 0,0 -5.35,1.26 -11.663,2.287 l 25.813,-37.485 z"
           style="fill:#23334f;fill-opacity:1;fill-rule:nonzero;stroke:none"
           id="path34143"
           inkscape:connector-curvature="0" /><path
           d="m 362.406,524.071 0.491,2.248 -25.813,37.485 c -5.01,0.815 -10.627,1.483 -14.659,1.256 -9.107,-0.506 -22.262,-18.216 -23.271,-19.731 -1.014,-1.517 -4.553,-16.697 -4.553,-16.697 0,0 -4.056,-1.008 -8.097,-1.515 -1.181,-0.152 -2.318,-0.993 -3.338,-2.107 l 83.89,-9.791 c -1.306,3.554 -4.65,8.852 -4.65,8.852"
           style="fill:#678d40;fill-opacity:1;fill-rule:nonzero;stroke:none"
           id="path34145"
           inkscape:connector-curvature="0" /><path
           d="m 358.244,506.422 c 0.549,1.847 1.623,3.995 1.623,3.995 0,0 3.131,0 5.404,0.666 l 2.233,1.479 c 0.182,0.547 -0.027,1.512 -0.448,2.657 l -83.89,9.791 c -0.295,-0.321 -0.58,-0.664 -0.853,-1.021 l 25.413,-51.056 z"
           style="fill:#7ac142;fill-opacity:1;fill-rule:nonzero;stroke:none"
           id="path34147"
           inkscape:connector-curvature="0" /><path
           d="m 282.313,523.989 c -2.019,-2.641 -3.399,-5.983 -3.399,-5.983 0,0 -16.696,0 -20.244,-0.503 -3.296,-0.475 -26.281,-7.951 -34.772,-11.433 l 83.828,-33.137 z"
           style="fill:#b5b61b;fill-opacity:1;fill-rule:nonzero;stroke:none"
           id="path34149"
           inkscape:connector-curvature="0" /><path
           d="m 307.726,472.933 -83.828,33.137 c -0.637,-0.262 -1.196,-0.502 -1.656,-0.714 -1.013,-0.466 -2.758,-1.798 -4.994,-3.725 l -1.72,-70.068 z"
           style="fill:#d3b314;fill-opacity:1;fill-rule:nonzero;stroke:none"
           id="path34151"
           inkscape:connector-curvature="0" /><path
           d="m 353.615,460.33 c -5.595,6.458 -11.955,13.151 -11.955,13.151 0,0 2.023,3.544 2.023,4.056 0,0.502 4.046,-0.512 6.576,0.502 2.53,1.013 3.538,5.562 4.041,9.105 0.512,3.545 0,0 0,2.53 0,2.531 1.014,5.06 1.014,5.06 0,0 2.023,3.033 4.553,5.06 0,0 0,3.543 -1.512,4.046 -0.619,0.203 -0.487,1.324 -0.111,2.582 l -50.518,-33.489 z"
           style="fill:#3c9664;fill-opacity:1;fill-rule:nonzero;stroke:none"
           id="path34153"
           inkscape:connector-curvature="0" /><path
           d="m 367.457,512.444 c 0.018,0.037 0.033,0.076 0.047,0.118 l -2.233,-1.479 c 1.024,0.298 1.873,0.732 2.186,1.361"
           style="fill:#3c9664;fill-opacity:1;fill-rule:nonzero;stroke:none"
           id="path34155"
           inkscape:connector-curvature="0" /><path
           d="m 207.058,459.311 c 0,0 -3.667,-8.479 -8.181,-18.937 l 16.651,-8.811 1.72,70.068 c -12.299,-10.602 -39.499,-39.321 -42.065,-42.315 -0.581,-0.678 -1.683,-2.416 -3.095,-4.769 L 193.157,443.4 Z"
           style="fill:#e14b1e;fill-opacity:1;fill-rule:nonzero;stroke:none"
           id="path34157"
           inkscape:connector-curvature="0" /><path
           d="M 322.619,389.719 215.528,431.563 248.625,362.77 Z"
           style="fill:#e7d50b;fill-opacity:1;fill-rule:nonzero;stroke:none"
           id="path34159"
           inkscape:connector-curvature="0" /><path
           d="m 322.619,389.719 40.598,50.333 c -0.237,2.578 -0.675,6.572 -1.319,9.144 -0.429,1.721 -4.148,6.363 -8.283,11.134 l -45.889,12.603 z"
           style="fill:#86d053;fill-opacity:1;fill-rule:nonzero;stroke:none"
           id="path34161"
           inkscape:connector-curvature="0" /><path
           d="m 307.726,472.933 -92.198,-41.37 107.091,-41.844 z"
           style="fill:#b7d517;fill-opacity:1;fill-rule:nonzero;stroke:none"
           id="path34163"
           inkscape:connector-curvature="0" /><path
           d="m 156.035,371.59 c 0.256,-2.881 0.429,-4.98 0.429,-5.379 0,-0.846 0.313,-6.991 0.591,-12.723 l 17.812,0.535 z"
           style="fill:#ed1e24;fill-opacity:1;fill-rule:nonzero;stroke:none"
           id="path34165"
           inkscape:connector-curvature="0" /><path
           d="m 378.238,363.138 c -0.494,1.249 -0.902,2.318 -1.154,3.073 -1.015,3.033 -5.563,13.659 -7.084,16.194 -1.521,2.538 -3.032,9.612 -3.032,14.165 0,4.557 -0.511,13.152 0,15.18 0.247,0.967 0.372,3.799 0.602,6.931 l -13.746,-67.495 z"
           style="fill:#3faf6b;fill-opacity:1;fill-rule:nonzero;stroke:none"
           id="path34167"
           inkscape:connector-curvature="0" /><path
           d="m 172.613,410.767 c -2.254,2.499 -4.01,4.526 -4.01,4.526 l 3.664,4.195 -1.316,33.143 c -6.17,-10.47 -16.372,-28.879 -17.523,-27.72 -1.526,1.515 -23.783,1.013 -23.783,1.013 0,0 11.138,-9.115 13.663,-11.133 2.525,-2.037 6.069,-10.12 6.069,-10.12 l 4.557,-10.63 c 0,0 1.379,-14.332 2.101,-22.451 l 18.832,-17.567 z"
           style="fill:#ed2024;fill-opacity:1;fill-rule:nonzero;stroke:none"
           id="path34169"
           inkscape:connector-curvature="0" /><path
           d="m 193.157,443.4 -21.069,11.147 c -0.36,-0.601 -0.74,-1.242 -1.137,-1.916 l 1.316,-33.143 z"
           style="fill:#f0401e;fill-opacity:1;fill-rule:nonzero;stroke:none"
           id="path34171"
           inkscape:connector-curvature="0" /><path
           d="m 198.877,440.374 c -7.104,-16.459 -16.304,-37.819 -16.611,-38.749 -0.322,-0.961 -5.738,4.801 -9.653,9.142 l 2.254,-56.744 40.661,77.54 z"
           style="fill:#f0401e;fill-opacity:1;fill-rule:nonzero;stroke:none"
           id="path34173"
           inkscape:connector-curvature="0" /><path
           d="m 331.337,378.955 c 1.142,1.069 1.715,1.928 1.715,1.928 0,0 0.38,-2.27 0.761,-4.986 l 20.011,-24.711 13.746,67.495 c 0.25,3.401 0.625,7.155 1.416,9.262 1.516,4.046 -2.018,5.571 -3.539,9.11 -1.52,3.539 -2.027,0.498 -2.027,0.498 0,0 -0.068,1.017 -0.203,2.501 l -40.598,-50.333 z"
           style="fill:#7cce63;fill-opacity:1;fill-rule:nonzero;stroke:none"
           id="path34175"
           inkscape:connector-curvature="0" /><path
           d="m 215.528,431.563 -40.661,-77.54 73.758,8.747 z"
           style="fill:#f36617;fill-opacity:1;fill-rule:nonzero;stroke:none"
           id="path34177"
           inkscape:connector-curvature="0" /><path
           d="m 248.625,362.77 54.137,-35.697 19.857,62.646 z"
           style="fill:#e8e408;fill-opacity:1;fill-rule:nonzero;stroke:none"
           id="path34179"
           inkscape:connector-curvature="0" /><path
           d="m 412,331.801 c -1.521,0 0,0 -1.014,3.544 -1.006,3.544 -4.05,3.032 -8.603,2.028 -4.554,-1.023 -2.02,-4.558 -2.02,-4.558 l -6.073,-0.502 c 0,0 -3.032,4.046 -5.571,8.092 -2.53,4.046 0,0 -1.004,2.53 -1.02,2.529 -3.033,3.032 -4.553,7.59 -1.15,3.427 -3.43,8.843 -4.924,12.613 l -24.414,-11.952 56.134,-40.638 27.317,-0.498 c 0,0 1.461,0.195 3.698,0.242 l 3.492,21.509 z"
           style="fill:#4fb769;fill-opacity:1;fill-rule:nonzero;stroke:none"
           id="path34181"
           inkscape:connector-curvature="0" /><path
           d="m 522.813,338.373 c -1.253,0 -4.431,-2.311 -9.65,-4.914 l 7.207,-8.48 c 1.503,-0.402 3.041,-1.047 3.955,-1.279 2.023,-0.511 6.589,-2.525 6.589,-2.525 l 2.934,0.733 -1.29,6.332 c -3.689,4.511 -8.528,10.133 -9.745,10.133"
           style="fill:#245659;fill-opacity:1;fill-rule:nonzero;stroke:none"
           id="path34183"
           inkscape:connector-curvature="0" /><path
           d="m 501.059,328.759 c -12.646,-3.538 -8.604,1.517 -13.668,3.544 -5.056,2.019 -8.6,4.056 -12.646,7.088 -4.042,3.032 -7.59,1.517 -7.59,0 0,-1.516 -9.105,-8.101 -9.105,-8.101 l -7.585,0.511 h -6 l -3.492,-21.509 c 2.865,0.062 7.005,-0.117 10.984,-1.25 5.669,-1.619 8.419,-11.327 9.293,-15.149 l 3.592,0.527 c 1.9,1.205 4.312,2.728 6.342,4 3.097,1.936 16.283,0.907 22.976,0.318 l 17.965,2.646 c -0.707,1.535 -0.326,4.591 0.053,7.648 0.511,4.051 4.054,1.01 4.054,1.01 v 4.045 c 0,0 -2.027,2.014 -3.031,5.06 -1.018,3.037 2.023,2.534 3.031,5.064 0.555,1.385 2.322,1.253 4.138,0.768 l -7.207,8.48 c -3.239,-1.615 -7.263,-3.342 -12.104,-4.7"
           style="fill:#2f7860;fill-opacity:1;fill-rule:nonzero;stroke:none"
           id="path34185"
           inkscape:connector-curvature="0" /><path
           d="m 74.274,210.885 2.5,-21.438 c 0.25,-0.259 0.503,-0.537 0.761,-0.838 1.592,-1.865 4.024,-1.351 6.267,-0.371 l 3.061,38.614 C 84.371,224.863 78.379,216.59 74.274,210.885"
           style="fill:#ef3620;fill-opacity:1;fill-rule:nonzero;stroke:none"
           id="path34187"
           inkscape:connector-curvature="0" /><path
           d="m 402.43,283.277 c -1.143,1.159 -2.773,2.295 -4.614,3.371 l 2.58,-3.783 z"
           style="fill:#9bd74e;fill-opacity:1;fill-rule:nonzero;stroke:none"
           id="path34189"
           inkscape:connector-curvature="0" /><path
           d="m 391.631,295.725 c 1.889,0.513 4.049,1.24 6.691,1.675 6.07,1.014 2.531,2.024 8.097,3.029 5.561,1.023 3.036,10.128 3.036,10.128 l 0.503,-0.009 -56.134,40.638 z"
           style="fill:#9bd74e;fill-opacity:1;fill-rule:nonzero;stroke:none"
           id="path34191"
           inkscape:connector-curvature="0" /><path
           d="m 174.867,354.023 59.81,-30.26 13.948,39.007 z"
           style="fill:#f46a17;fill-opacity:1;fill-rule:nonzero;stroke:none"
           id="path34193"
           inkscape:connector-curvature="0" /><path
           d="m 334.577,368.229 c 0,-3.534 3.036,-8.096 4.553,-13.147 0.542,-1.803 2.37,-5.151 4.497,-8.711 l 10.197,4.815 -20.011,24.711 c 0.382,-2.723 0.764,-5.894 0.764,-7.668"
           style="fill:#c2e132;fill-opacity:1;fill-rule:nonzero;stroke:none"
           id="path34195"
           inkscape:connector-curvature="0" /><path
           d="m 311.799,338.889 c -1.522,-0.516 4.556,16.695 4.556,16.695 l 16.697,2.531 -14.166,7.087 c 0,0 3.036,4.042 4.051,5.562 1.018,1.512 5.064,5.558 7.086,7.087 0.5,0.375 0.938,0.75 1.314,1.104 l -8.718,10.764 -19.857,-62.646 21.687,10.241 c -6.695,1.019 -12.103,1.756 -12.65,1.575"
           style="fill:#c2e132;fill-opacity:1;fill-rule:nonzero;stroke:none"
           id="path34197"
           inkscape:connector-curvature="0" /><path
           d="m 153.714,325.91 c -1.201,-4.592 -2.625,-9.592 -4.174,-14.389 l 36.438,4.44 z"
           style="fill:#ee2922;fill-opacity:1;fill-rule:nonzero;stroke:none"
           id="path34199"
           inkscape:connector-curvature="0" /><path
           d="m 174.867,354.023 -17.812,-0.535 c 0.222,-4.595 0.423,-8.925 0.423,-10.051 0,-1.528 -1.478,-8.786 -3.764,-17.527 l 32.264,-9.949 z"
           style="fill:#ee2a22;fill-opacity:1;fill-rule:nonzero;stroke:none"
           id="path34201"
           inkscape:connector-curvature="0" /><path
           d="m 185.978,315.961 48.699,7.802 -59.81,30.26 z"
           style="fill:#f2561a;fill-opacity:1;fill-rule:nonzero;stroke:none"
           id="path34203"
           inkscape:connector-curvature="0" /><path
           d="m 234.677,323.763 68.085,3.31 -54.137,35.697 z"
           style="fill:#fbca09;fill-opacity:1;fill-rule:nonzero;stroke:none"
           id="path34205"
           inkscape:connector-curvature="0" /><path
           d="m 149.54,311.521 c -0.383,-1.182 -0.772,-2.351 -1.168,-3.498 -5.06,-14.681 -28.838,-16.189 -28.838,-16.189 l 8.599,-9.617 c 0,0 13.152,-9.608 17.709,-11.645 4.558,-2.033 16.194,-8.092 19.742,-8.586 0.697,-0.099 1.649,-0.259 2.729,-0.451 l 17.665,54.426 z"
           style="fill:#f0431e;fill-opacity:1;fill-rule:nonzero;stroke:none"
           id="path34207"
           inkscape:connector-curvature="0" /><path
           d="m 163.686,247.277 c -0.224,0.186 -0.436,0.362 -0.632,0.526 -3.032,2.529 -10.124,5.572 -12.654,5.572 -1.244,0 -7.381,-1.223 -13.479,-2.584 l 22.816,-15.68 z"
           style="fill:#f0431e;fill-opacity:1;fill-rule:nonzero;stroke:none"
           id="path34209"
           inkscape:connector-curvature="0" /><path
           d="m 349.747,336.65 4.077,14.536 -10.197,-4.815 c 2.057,-3.441 4.393,-7.079 6.12,-9.721"
           style="fill:#e3ea12;fill-opacity:1;fill-rule:nonzero;stroke:none"
           id="path34211"
           inkscape:connector-curvature="0" /><path
           d="m 339.166,298.926 -27.788,1.869 15.26,-46.533 z"
           style="fill:#e3ea12;fill-opacity:1;fill-rule:nonzero;stroke:none"
           id="path34213"
           inkscape:connector-curvature="0" /><path
           d="m 324.449,337.314 -21.687,-10.241 4.549,-13.873 36.061,0.722 5.462,19.472 c -5.35,0.891 -15.9,2.631 -24.385,3.92"
           style="fill:#e3ea12;fill-opacity:1;fill-rule:nonzero;stroke:none"
           id="path34215"
           inkscape:connector-curvature="0" /><path
           d="m 400.396,282.865 -2.58,3.783 c -5.021,2.938 -11.611,5.428 -14.166,6.702 -4.042,2.019 -29.354,4.558 -29.354,4.558 l -15.13,1.018 -12.528,-44.664 z"
           style="fill:#d0e635;fill-opacity:1;fill-rule:nonzero;stroke:none"
           id="path34217"
           inkscape:connector-curvature="0" /><path
           d="m 349.747,336.65 c 1.501,-2.294 2.544,-3.835 2.544,-3.835 0,0 -1.311,0.222 -3.457,0.579 l -5.462,-19.472 8.909,0.179 10.12,-2.018 5.558,-4.046 c 0,0 3.037,-5.06 5.571,-8.608 2.531,-3.548 8.087,-1.521 11.64,-3.544 2.004,-1.143 4.003,-0.83 6.461,-0.16 l -37.807,55.461 z"
           style="fill:#d0e635;fill-opacity:1;fill-rule:nonzero;stroke:none"
           id="path34219"
           inkscape:connector-curvature="0" /><path
           d="m 136.921,250.791 c -6.305,-1.408 -12.568,-2.967 -13.337,-3.482 -1.52,-1.018 -14.672,-8.106 -16.7,-9.114 -1.288,-0.646 -7.704,-4.164 -12.981,-7.158 l 65.834,4.074 z"
           style="fill:#f03d1e;fill-opacity:1;fill-rule:nonzero;stroke:none"
           id="path34221"
           inkscape:connector-curvature="0" /><path
           d="m 498.008,298.42 c 1.507,0 13.658,-7.084 13.658,-7.084 l 7.088,-5.576 c 0,0 9.105,10.636 11.636,14.185 2.525,3.543 1.008,2.013 1.008,2.013 0,0 -3.027,-0.013 -5.054,-0.013 -2.019,0 -4.553,-1.014 -6.58,-1.526 -2.029,-0.493 -4.549,-0.493 -6.568,0 -0.497,0.126 -0.842,0.465 -1.071,0.965 l -17.965,-2.646 c 2.049,-0.179 3.49,-0.318 3.848,-0.318"
           style="fill:#79a63a;fill-opacity:1;fill-rule:nonzero;stroke:none"
           id="path34223"
           inkscape:connector-curvature="0" /><path
           d="m 461.57,292.346 c 0,0 1.383,0.879 3.272,2.074 l -3.592,-0.527 c 0.219,-0.957 0.32,-1.547 0.32,-1.547"
           style="fill:#79a63a;fill-opacity:1;fill-rule:nonzero;stroke:none"
           id="path34225"
           inkscape:connector-curvature="0" /><path
           d="m 326.638,254.262 -91.961,69.501 -17.021,-94.798 z"
           style="fill:#fabd09;fill-opacity:1;fill-rule:nonzero;stroke:none"
           id="path34227"
           inkscape:connector-curvature="0" /><path
           d="m 234.677,323.763 91.961,-69.501 -15.26,46.533 -17.289,1.163 7.59,11.129 5.632,0.113 -4.549,13.873 z"
           style="fill:#f9e007;fill-opacity:1;fill-rule:nonzero;stroke:none"
           id="path34229"
           inkscape:connector-curvature="0" /><path
           d="m 217.656,228.965 17.021,94.798 -48.699,-7.802 z"
           style="fill:#f58013;fill-opacity:1;fill-rule:nonzero;stroke:none"
           id="path34231"
           inkscape:connector-curvature="0" /><path
           d="m 185.978,315.961 -17.665,-54.426 c 4.405,-0.783 10.934,-2.097 10.934,-2.097 l 1.014,-4.045 c 0,0 0.283,-15.692 -0.218,-22.436 l 37.613,-3.992 z"
           style="fill:#f47515;fill-opacity:1;fill-rule:nonzero;stroke:none"
           id="path34233"
           inkscape:connector-curvature="0" /><path
           d="m 177.157,233.264 c -1.371,1.97 -2.834,3.961 -3.476,4.931 -0.949,1.418 -6.763,6.383 -9.995,9.082 l -3.949,-12.166 z"
           style="fill:#f47515;fill-opacity:1;fill-rule:nonzero;stroke:none"
           id="path34235"
           inkscape:connector-curvature="0" /><path
           d="m 400.396,282.865 -73.758,-28.603 68.557,-7.33 z"
           style="fill:#d6e610;fill-opacity:1;fill-rule:nonzero;stroke:none"
           id="path34237"
           inkscape:connector-curvature="0" /><path
           d="m 395.195,246.932 9.928,10.148 c 0.316,0.854 0.584,1.65 0.789,2.367 2.019,7.088 0,16.705 -2.023,21.756 -0.277,0.693 -0.784,1.389 -1.459,2.074 l -2.034,-0.412 z"
           style="fill:#a1d61f;fill-opacity:1;fill-rule:nonzero;stroke:none"
           id="path34239"
           inkscape:connector-curvature="0" /><path
           d="m 399.96,245.768 c 1.978,3.869 3.94,8.019 5.163,11.312 l -9.928,-10.148 z"
           style="fill:#a3d71d;fill-opacity:1;fill-rule:nonzero;stroke:none"
           id="path34241"
           inkscape:connector-curvature="0" /><path
           d="m 313.583,207.814 c -2.575,-2.638 -6.083,-5.824 -8.872,-7.568 -4.046,-2.531 -7.083,-4.057 -10.627,-3.545 -3.539,0.512 -9.612,-2.027 -12.654,-1.515 -2.526,0.425 -1.906,-2.301 -1.905,-5.268 l 24.655,-15.561 z"
           style="fill:#fab90a;fill-opacity:1;fill-rule:nonzero;stroke:none"
           id="path34243"
           inkscape:connector-curvature="0" /><path
           d="m 217.656,228.965 42.752,-26.983 c 6.227,12.276 10.916,21.536 10.916,21.536 l 5.563,4.054 c 0,0 11.133,4.553 12.649,5.563 1.521,1.013 20.239,3.539 20.239,3.539 l 12.379,1.637 4.484,15.951 z"
           style="fill:#fab90a;fill-opacity:1;fill-rule:nonzero;stroke:none"
           id="path34245"
           inkscape:connector-curvature="0" /><path
           d="m 304.18,174.357 37.859,-9.796 18.335,22.533 c 0,0 14.175,18.211 14.677,19.728 0.502,1.516 16.691,24.801 18.719,27.832 0.259,0.393 0.622,0.979 1.058,1.715 l 0.367,10.563 z"
           style="fill:#fabf09;fill-opacity:1;fill-rule:nonzero;stroke:none"
           id="path34247"
           inkscape:connector-curvature="0" /><path
           d="m 395.195,246.932 -68.557,7.33 -4.484,-15.951 14.437,1.906 c 0,0 -1.517,-2.529 -2.028,-4.561 -0.512,-2.019 -1.52,-6.074 -3.54,-7.08 -2.027,-1.004 -4.556,-3.543 -7.589,-8.594 -3.037,-5.058 -5.064,-6.584 -7.087,-9.115 -0.632,-0.785 -1.603,-1.863 -2.764,-3.053 l -9.403,-33.457 z"
           style="fill:#f9d706;fill-opacity:1;fill-rule:nonzero;stroke:none"
           id="path34249"
           inkscape:connector-curvature="0" /><path
           d="m 159.737,235.111 -65.834,-4.074 c -1.586,-0.898 -3.07,-1.752 -4.28,-2.463 l 40.357,-33.553 c 0.264,0.063 0.493,0.118 0.678,0.165 1.308,0.33 5.366,-3.997 8.482,-7.78 l 29.344,-24.396 z"
           style="fill:#f1481d;fill-opacity:1;fill-rule:nonzero;stroke:none"
           id="path34251"
           inkscape:connector-curvature="0" /><path
           d="m 394.828,236.369 c 1.282,2.166 3.213,5.649 5.132,9.399 l -4.765,1.164 z"
           style="fill:#d2d210;fill-opacity:1;fill-rule:nonzero;stroke:none"
           id="path34253"
           inkscape:connector-curvature="0" /><path
           d="m 279.525,189.918 c 0,-0.605 -0.025,-1.219 -0.108,-1.82 -0.517,-3.534 -3.544,-3.534 -5.577,-6.073 -2.027,-2.521 -1.516,-7.078 -1.516,-10.613 0,-2.219 2.977,-9.599 5.826,-15.676 l 26.03,18.621 z"
           style="fill:#f7990f;fill-opacity:1;fill-rule:nonzero;stroke:none"
           id="path34255"
           inkscape:connector-curvature="0" /><path
           d="m 236.479,154.92 c 6.449,12.621 16.333,32.086 23.929,47.062 l -42.752,26.983 z"
           style="fill:#f7990f;fill-opacity:1;fill-rule:nonzero;stroke:none"
           id="path34257"
           inkscape:connector-curvature="0" /><path
           d="m 87.147,227.061 c -0.088,-0.059 -0.184,-0.129 -0.284,-0.209 l -3.061,-38.614 c 2.028,0.887 3.901,2.157 4.862,2.399 2.018,0.502 17.211,2.019 19.23,2.019 2.023,0 9.612,0.502 11.64,0.502 1.841,0 7.846,1.25 10.446,1.863 l -40.357,33.553 c -1.086,-0.638 -1.953,-1.166 -2.476,-1.513"
           style="fill:#f03f1e;fill-opacity:1;fill-rule:nonzero;stroke:none"
           id="path34259"
           inkscape:connector-curvature="0" /><path
           d="m 139.14,187.406 c 1.703,-2.068 3.125,-3.974 3.661,-4.869 1.407,-2.348 9.348,-15.148 12.512,-21.023 l 13.171,1.496 z"
           style="fill:#f03f1e;fill-opacity:1;fill-rule:nonzero;stroke:none"
           id="path34261"
           inkscape:connector-curvature="0" /><path
           d="m 168.484,163.01 49.172,65.955 -37.613,3.992 c -0.166,-2.236 -0.418,-3.49 -0.796,-2.859 -0.553,0.92 -1.307,2.039 -2.09,3.166 l -17.42,1.847 z"
           style="fill:#f36418;fill-opacity:1;fill-rule:nonzero;stroke:none"
           id="path34263"
           inkscape:connector-curvature="0" /><path
           d="m 168.484,163.01 56.007,-24.615 c 2.912,1.798 5.043,3.222 5.336,3.664 0.247,0.369 2.854,5.429 6.652,12.861 l -18.823,74.045 z"
           style="fill:#f57515;fill-opacity:1;fill-rule:nonzero;stroke:none"
           id="path34265"
           inkscape:connector-curvature="0" /><path
           d="m 155.313,161.514 c 0.247,-0.457 0.466,-0.875 0.649,-1.241 0.66,-1.318 2.8,-3.669 5.638,-6.48 l 6.884,9.217 z"
           style="fill:#ef3620;fill-opacity:1;fill-rule:nonzero;stroke:none"
           id="path34267"
           inkscape:connector-curvature="0" /><path
           d="m 161.6,153.793 c 2.022,-2.002 4.398,-4.236 6.847,-6.496 l 0.037,15.713 z"
           style="fill:#ef3520;fill-opacity:1;fill-rule:nonzero;stroke:none"
           id="path34269"
           inkscape:connector-curvature="0" /><path
           d="m 303.829,110.436 c 4.722,-3.184 11.011,-5.989 13.034,-6.319 3.032,-0.51 3.032,8.586 3.032,8.586 l 7.589,30.875 8.6,13.664 5.955,7.319 -37.859,9.796 z"
           style="fill:#f57e14;fill-opacity:1;fill-rule:nonzero;stroke:none"
           id="path34271"
           inkscape:connector-curvature="0" /><path
           d="m 278.15,155.736 c 1.7,-3.627 3.354,-6.791 4.303,-8.117 2.535,-3.543 13.664,-27.828 16.193,-32.377 0.845,-1.521 2.817,-3.211 5.183,-4.806 l 0.351,63.921 z"
           style="fill:#f68712;fill-opacity:1;fill-rule:nonzero;stroke:none"
           id="path34273"
           inkscape:connector-curvature="0" /><path
           d="m 168.447,147.297 c 7.295,-6.733 15.232,-13.686 16.349,-15.367 2.037,-3.034 18.221,-4.549 19.741,-4.549 1.076,0 12.845,6.623 19.954,11.014 l -56.007,24.615 z"
           style="fill:#f2561a;fill-opacity:1;fill-rule:nonzero;stroke:none"
           id="path34275"
           inkscape:connector-curvature="0" /></g></g></g></svg>